<?xml version="1.0" standalone="no"?>
<!DOCTYPE svg PUBLIC "-//W3C//DTD SVG 20010904//EN"
 "http://www.w3.org/TR/2001/REC-SVG-20010904/DTD/svg10.dtd">
<svg version="1.0" xmlns="http://www.w3.org/2000/svg"
 width="1109.000000pt" height="1280.000000pt" viewBox="0 0 1109.000000 1280.000000"
 preserveAspectRatio="xMidYMid meet">
<metadata>
Created by potrace 1.15, written by Peter Selinger 2001-2017
</metadata>
<g transform="translate(0.000000,1280.000000) scale(0.100000,-0.100000)"
fill="#000000" stroke="none">
<path d="M5190 11271 c-115 -9 -172 -32 -298 -123 -163 -118 -270 -249 -384
-473 -121 -238 -255 -664 -327 -1040 -17 -88 -35 -182 -41 -210 -34 -171 -93
-648 -109 -890 -30 -433 -34 -508 -51 -990 -6 -159 -12 -303 -15 -318 -3 -16
-8 -264 -11 -550 -3 -287 -8 -540 -9 -562 -2 -22 -6 -70 -9 -108 -8 -117 -60
-257 -124 -335 -26 -31 -39 -36 -197 -74 l-169 -41 -53 17 c-73 23 -170 100
-211 167 -30 48 -33 61 -30 111 6 91 71 158 152 158 27 0 44 -8 71 -35 19 -20
35 -42 35 -49 0 -8 6 -19 14 -25 23 -19 54 4 66 50 39 144 -158 268 -318 199
-67 -29 -134 -102 -162 -178 -18 -46 -21 -74 -18 -142 4 -112 29 -162 130
-262 43 -42 75 -79 70 -81 -4 -2 -45 -14 -92 -27 -101 -27 -424 -133 -670
-220 -96 -33 -240 -79 -320 -101 -325 -89 -709 -220 -1208 -413 -225 -86 -271
-121 -258 -192 5 -26 16 -41 40 -55 59 -35 220 -290 256 -406 14 -44 29 -72
51 -90 45 -38 98 -155 92 -201 -4 -28 0 -44 17 -64 12 -16 28 -28 35 -28 21 0
49 -34 109 -134 92 -155 346 -691 346 -731 0 -7 4 -15 8 -17 19 -7 66 -142 64
-182 -1 -34 3 -45 28 -66 45 -38 268 -440 340 -612 17 -43 44 -88 59 -100 14
-13 37 -40 49 -60 27 -44 127 -125 198 -161 27 -14 56 -33 63 -41 8 -9 26 -16
41 -16 15 0 88 -20 161 -44 74 -25 208 -61 299 -81 91 -20 199 -47 240 -60 54
-18 98 -25 155 -25 44 0 125 -7 180 -15 55 -7 127 -16 160 -19 33 -4 85 -9
115 -13 30 -4 91 -8 135 -8 44 0 166 -6 270 -13 105 -7 228 -15 275 -17 47 -1
110 -10 140 -18 48 -13 233 -26 465 -33 39 -1 219 -7 400 -14 665 -23 1265 -9
1740 41 382 41 433 48 605 82 189 38 369 92 465 139 33 17 85 38 115 48 49 16
57 23 80 66 14 27 35 63 48 81 12 17 22 39 22 48 0 9 26 65 58 125 40 77 62
110 75 110 26 0 68 24 97 55 14 15 44 40 68 57 53 37 46 52 -20 43 -49 -7 -50
-7 -43 16 4 13 17 32 28 41 12 9 26 31 32 49 8 24 26 42 61 62 106 62 147 124
149 227 1 53 6 72 28 104 27 39 35 66 18 66 -27 0 218 458 245 460 20 0 114
108 114 129 0 12 -5 21 -11 21 -6 0 9 27 33 61 31 44 58 69 98 91 95 52 133
117 105 184 l-15 37 52 71 c29 39 62 88 72 108 21 42 130 189 216 290 31 38
63 80 70 94 8 14 29 41 46 59 81 86 59 203 -63 336 -168 181 -625 468 -1083
679 -175 81 -155 72 -315 138 -358 148 -590 229 -845 295 -239 62 -699 152
-887 172 -35 4 -63 10 -63 14 0 4 30 13 66 21 206 40 347 184 348 355 2 176
-106 315 -244 315 -61 0 -96 -17 -139 -65 -25 -29 -31 -44 -31 -84 0 -35 5
-53 20 -66 26 -24 54 -13 46 18 -8 32 33 67 77 67 44 0 99 -50 121 -108 40
-107 -6 -203 -127 -260 -89 -42 -118 -46 -177 -27 -34 11 -64 14 -90 10 -35
-6 -47 -2 -91 26 -92 59 -187 196 -233 335 -42 129 -47 191 -56 784 -20 1220
-31 1594 -55 1870 -41 465 -128 1000 -210 1285 -114 398 -270 676 -448 797
-126 86 -213 104 -417 89z m88 -185 c15 -7 43 -16 63 -20 48 -9 153 -105 214
-196 196 -295 317 -762 410 -1580 34 -296 53 -715 60 -1305 3 -247 10 -643 17
-880 15 -538 15 -647 0 -713 -41 -182 -167 -296 -327 -296 -89 -1 -148 25
-213 92 -91 93 -137 221 -105 289 18 39 69 73 109 73 31 0 116 -40 161 -76 25
-20 26 -24 16 -58 -15 -47 2 -59 34 -22 47 55 22 163 -52 224 -85 69 -231 70
-324 1 -16 -12 -42 -44 -58 -73 -24 -44 -28 -61 -28 -131 1 -69 5 -90 33 -149
74 -159 221 -280 364 -302 l53 -8 -65 -7 c-183 -21 -250 -30 -263 -35 -10 -4
-16 6 -20 37 -14 104 -94 209 -192 252 -64 28 -179 27 -239 -4 -62 -31 -120
-97 -142 -161 -15 -46 -15 -53 0 -93 25 -65 96 -84 96 -27 0 76 89 139 173
123 26 -4 57 -15 70 -24 28 -18 57 -74 57 -109 0 -22 -5 -24 -132 -41 -73 -10
-250 -38 -392 -62 -143 -24 -263 -42 -267 -39 -13 7 -68 159 -85 230 -36 157
-37 265 -9 794 11 214 25 519 35 755 6 138 12 282 15 320 2 39 7 113 10 165
13 226 36 558 51 720 39 452 125 982 204 1260 10 36 21 81 25 100 4 19 11 41
15 50 4 8 20 56 34 105 90 300 261 623 382 720 43 34 165 114 177 114 4 1 20
-5 35 -13z m-951 -1618 c-3 -8 -6 -5 -6 6 -1 11 2 17 5 13 3 -3 4 -12 1 -19z
m-10 -50 c-3 -7 -5 -2 -5 12 0 14 2 19 5 13 2 -7 2 -19 0 -25z m-16 -109 c-9
-22 -10 -22 -10 -3 -1 11 2 24 6 27 12 12 14 0 4 -24z m-16 -114 c-4 -31 -9
-54 -12 -51 -3 2 -1 30 2 61 4 31 9 54 12 51 3 -2 1 -30 -2 -61z m-28 -207
c-4 -40 -11 -122 -17 -183 -21 -233 -50 -610 -50 -657 0 -26 -4 -48 -10 -48
-5 0 -7 21 -5 48 3 26 12 153 20 282 9 129 23 296 31 370 9 74 18 163 21 198
3 34 8 62 11 62 3 0 2 -33 -1 -72z m-80 -950 c-2 -13 -4 -5 -4 17 -1 22 1 32
4 23 2 -10 2 -28 0 -40z m-3 -195 c-4 -93 -10 -174 -14 -181 -7 -13 -4 90 6
256 10 153 15 103 8 -75z m2001 -158 c2 -41 -1 -78 -6 -81 -5 -3 -9 33 -9 82
0 106 11 105 15 -1z m-2018 -82 c-3 -10 -5 -4 -5 12 0 17 2 24 5 18 2 -7 2
-21 0 -30z m0 -55 c-3 -7 -5 -2 -5 12 0 14 2 19 5 13 2 -7 2 -19 0 -25z m2052
-1012 c41 -232 159 -430 320 -537 44 -29 78 -57 75 -61 -11 -17 -84 -7 -129
17 -47 24 -47 24 -254 18 l-206 -6 -30 26 -30 26 56 53 c115 110 166 231 176
411 3 64 7 117 9 117 1 0 7 -29 13 -64z m-2084 -522 c9 -56 43 -179 66 -231
10 -25 19 -48 19 -52 0 -5 -33 -13 -72 -20 -40 -7 -83 -14 -95 -17 l-22 -6 24
59 c28 70 51 163 61 251 8 70 11 73 19 16z m2113 -211 c28 -12 74 -17 197 -18
167 -3 391 -27 636 -70 224 -38 480 -90 594 -120 293 -77 332 -89 575 -180
209 -78 651 -267 648 -276 -6 -16 -92 -116 -237 -274 -60 -65 -225 -249 -227
-253 0 -1 -88 18 -195 43 -107 25 -284 66 -394 91 -157 36 -205 51 -226 70
-29 28 -49 31 -49 8 0 -11 -6 -13 -19 -9 -35 11 -506 115 -521 115 -8 0 -28
25 -43 55 -58 110 -152 173 -352 233 -122 37 -171 46 -180 33 -3 -6 3 -40 15
-77 11 -36 20 -81 20 -99 l0 -32 -117 23 c-65 13 -128 26 -141 29 -22 5 -21 7
17 55 72 92 85 141 86 332 0 164 0 167 -25 193 -41 43 -58 49 -88 28 -40 -26
-78 -42 -162 -64 -72 -20 -186 -75 -208 -101 -55 -67 -122 -237 -122 -310 0
-33 -3 -38 -17 -34 -10 3 -90 17 -178 31 -88 14 -172 28 -187 31 -26 5 -27 9
-34 85 l-7 79 -36 0 c-61 0 -81 -22 -81 -86 l0 -56 -37 6 c-21 3 -76 10 -123
16 -131 17 -150 20 -150 29 0 5 26 18 58 29 154 57 314 195 376 325 l36 74 90
12 c342 43 401 48 603 50 136 1 175 -2 205 -16z m-1138 -112 c-32 -41 -131
-121 -185 -148 -61 -32 -126 -43 -191 -33 -109 18 -154 46 -154 99 0 19 14 27
62 36 13 3 46 9 73 14 28 6 113 19 190 31 77 12 158 25 180 30 22 4 44 8 48 9
5 1 -5 -17 -23 -38z m-729 -181 c44 -43 89 -82 98 -85 17 -5 41 -44 41 -66 0
-6 -40 -8 -107 -4 -211 12 -290 14 -421 15 -73 0 -139 3 -147 6 -20 8 -19 68
1 89 9 9 26 23 38 30 33 21 264 66 303 59 25 -5 37 -2 46 9 10 13 28 21 59 26
5 0 44 -35 89 -79z m-854 -134 c16 -16 -21 -25 -146 -35 -73 -7 -147 -15 -165
-18 -64 -12 -11 13 82 39 92 25 211 33 229 14z m827 -208 l249 -12 14 -36 c43
-105 120 -248 184 -345 74 -110 96 -155 77 -155 -10 0 -237 117 -251 130 -4 4
-15 35 -22 69 -41 175 -167 294 -342 324 -105 18 -438 -33 -450 -70 -2 -6 17
-34 42 -64 35 -41 43 -58 38 -73 -13 -37 -5 -347 11 -423 35 -170 151 -313
310 -384 50 -22 229 -59 285 -59 36 0 45 -8 187 -161 82 -88 160 -167 174
-174 41 -22 129 -114 136 -141 4 -14 2 -30 -4 -36 -6 -6 -6 -19 1 -38 10 -27
8 -32 -33 -73 -31 -30 -85 -63 -175 -106 -136 -65 -252 -129 -346 -192 -54
-36 -55 -37 -79 -19 -23 17 -23 18 -8 71 21 75 23 209 4 267 -54 163 -68 285
-42 373 18 59 6 101 -29 107 -11 2 -37 10 -57 19 -24 10 -54 14 -87 11 -70 -7
-156 -71 -184 -139 l-21 -48 -75 132 -75 132 1 130 c1 116 4 137 28 200 38 98
41 113 20 121 -22 9 -181 -11 -260 -31 -59 -16 -60 -16 -75 7 -39 59 -216 288
-329 427 -69 84 -136 166 -148 181 l-23 28 48 6 c396 48 896 65 1306 44z m701
-62 l160 -21 7 -40 c4 -22 11 -67 17 -100 5 -33 21 -125 34 -205 14 -80 28
-158 31 -175 3 -16 9 -54 14 -82 5 -29 7 -53 4 -53 -8 0 -74 50 -109 83 -21
19 -33 41 -33 56 0 15 -3 37 -7 49 -5 21 -11 23 -45 20 -35 -3 -43 0 -71 32
-106 121 -174 220 -247 362 -28 53 -50 99 -50 102 0 8 84 0 295 -28z m-2048
-213 c93 -115 189 -233 212 -263 l43 -54 -178 -36 -179 -35 -21 45 c-29 62
-75 104 -136 124 -72 23 -107 20 -177 -15 -35 -17 -66 -27 -71 -23 -4 5 -13
27 -20 49 -28 92 -98 167 -234 253 -30 20 -44 33 -35 36 29 10 149 36 269 60
116 22 177 33 305 55 28 5 51 9 51 10 1 0 78 -92 171 -206z m2478 146 c66 -11
137 -23 158 -26 20 -3 37 -7 37 -9 0 -7 -241 -299 -248 -302 -5 -1 -16 42 -26
95 -10 54 -24 131 -32 172 -14 73 -16 91 -11 91 1 0 56 -9 122 -21z m3735 -60
c129 -69 242 -136 368 -221 l73 -49 -97 -107 c-53 -59 -100 -111 -104 -115 -4
-5 -5 15 -2 42 3 37 1 51 -8 51 -21 0 -114 -57 -162 -100 -26 -22 -55 -40 -66
-40 -11 0 -71 11 -133 24 -259 55 -494 107 -496 110 -1 1 77 90 175 197 97
107 189 213 204 234 25 37 31 40 75 40 40 0 70 -12 173 -66z m-3287 -20 c37
-6 67 -15 67 -20 0 -16 -45 -38 -90 -44 -25 -4 -60 -14 -79 -22 -31 -14 -33
-18 -28 -50 4 -20 13 -43 21 -52 17 -20 46 -103 46 -134 0 -46 -145 -441 -160
-435 -4 2 -61 31 -126 66 l-119 63 -3 98 -2 97 77 86 c43 47 128 149 188 226
71 91 115 139 125 137 8 -2 45 -9 83 -16z m-3788 -26 c3 -10 -2 -60 -11 -111
-15 -80 -16 -101 -5 -155 7 -34 21 -77 32 -96 26 -45 19 -61 -29 -61 -57 0
-125 -48 -140 -99 -16 -53 -15 -79 8 -130 23 -50 21 -57 -20 -66 -25 -5 -34
-1 -65 33 -74 82 -190 105 -263 53 -31 -22 -52 -21 -52 2 0 7 -13 39 -29 72
-20 44 -56 88 -125 158 -53 53 -96 101 -96 106 0 29 57 57 295 147 232 87 449
161 481 163 7 1 15 -7 19 -16z m4181 -71 c9 -13 15 -14 26 -5 8 7 33 10 57 8
76 -8 78 -10 86 -76 6 -48 15 -70 49 -117 79 -107 168 -168 298 -207 l53 -15
76 -133 c42 -72 76 -133 74 -135 -1 -1 -55 11 -121 28 -172 44 -256 47 -426
18 -9 -2 -26 11 -40 29 -71 96 -117 155 -170 211 -67 73 -85 104 -93 163 -4
24 -16 72 -28 107 -25 75 -21 85 49 124 52 30 88 30 110 0z m764 -138 c8 -1
47 -10 85 -18 279 -61 251 -51 231 -81 -14 -21 -15 -33 -6 -63 5 -21 17 -94
26 -162 9 -71 24 -140 34 -160 16 -31 17 -40 5 -66 -26 -58 -135 -344 -135
-354 0 -6 -4 -10 -10 -10 -6 0 -10 44 -10 113 0 61 -7 229 -15 371 -14 244
-16 261 -37 283 -17 18 -31 23 -57 21 -52 -5 -64 -49 -53 -193 8 -98 6 -139
-4 -110 -2 6 -34 62 -70 125 l-65 114 11 66 c6 36 14 82 17 103 5 30 9 37 22
31 9 -3 23 -8 31 -10z m2714 -124 c79 -64 166 -164 166 -191 0 -27 -47 -39
-159 -39 -99 0 -321 17 -330 26 -8 7 224 264 239 264 5 0 43 -27 84 -60z
m-5061 -71 c145 -74 139 -73 235 -53 l33 6 -7 -323 c-4 -178 -7 -325 -8 -326
-1 -1 -79 81 -174 182 l-172 184 0 69 c0 91 -15 168 -49 252 -26 64 -26 75 -1
79 3 1 67 -31 143 -70z m-3531 -6 c60 -62 66 -72 71 -120 3 -29 18 -81 32
-115 41 -97 41 -95 7 -90 -20 3 -37 -3 -58 -21 -24 -21 -28 -32 -27 -67 1 -23
11 -58 23 -77 11 -20 19 -38 16 -40 -2 -2 -23 9 -47 26 -23 17 -48 31 -56 31
-7 0 -13 4 -13 9 0 5 -22 43 -50 85 -27 42 -61 98 -74 124 -13 27 -37 62 -53
79 -15 17 -40 44 -56 62 -32 36 -54 40 -59 9 -3 -19 -7 -16 -32 20 -16 23 -27
44 -25 45 8 5 314 105 324 106 6 1 40 -29 77 -66z m6733 8 c39 -10 129 -31
200 -47 72 -15 133 -30 137 -33 4 -4 -18 -38 -48 -76 -97 -121 -219 -286 -296
-400 -107 -158 -165 -254 -298 -490 -49 -86 -184 -364 -234 -479 -38 -88 -81
-162 -157 -272 -57 -83 -110 -160 -117 -170 -16 -23 -17 -29 39 181 67 256
116 546 134 802 l7 92 46 35 c25 20 53 36 62 36 12 0 37 52 94 198 l77 198 57
16 c113 32 151 51 195 94 90 88 97 163 32 317 -9 21 -14 21 70 -2z m-4600
-162 c-45 -41 -88 -121 -104 -190 -14 -59 -14 -151 1 -280 l12 -106 -53 -94
c-64 -112 -55 -101 -74 -94 -12 5 -16 32 -22 125 -4 66 -12 126 -19 135 -16
22 -86 30 -131 15 -31 -10 -36 -16 -30 -34 3 -11 9 -38 12 -59 l6 -38 -59 41
c-65 46 -84 73 -95 140 -4 25 -9 51 -11 59 -2 10 9 14 44 15 85 3 148 75 127
149 -9 35 -32 67 -48 67 -5 0 -25 -13 -46 -30 -30 -24 -47 -30 -87 -30 -58 0
-108 23 -108 49 0 10 -6 24 -14 30 -8 7 -17 24 -21 39 -3 15 -16 37 -27 49
l-20 21 56 16 c31 9 81 23 111 32 33 9 68 13 86 9 23 -5 36 -2 52 13 16 15 75
31 222 60 l200 39 40 -55 41 -56 -41 -37z m-609 121 c16 -6 23 -14 18 -19 -13
-13 -163 -55 -170 -48 -11 11 16 44 48 60 39 19 66 21 104 7z m5785 -91 c46
-16 79 -47 79 -76 0 -13 -2 -23 -5 -23 -14 0 -165 81 -165 88 0 25 37 29 91
11z m-6244 -60 l28 -11 -35 -13 c-37 -13 -60 -5 -60 21 0 17 29 18 67 3z
m2952 -18 c47 -38 176 -118 266 -165 39 -20 77 -41 85 -45 8 -5 27 -14 42 -21
l28 -13 -22 -36 c-88 -148 -294 -377 -411 -459 l-48 -34 2 349 c2 342 6 453
16 453 3 0 22 -13 42 -29z m3603 13 c4 -3 -5 -22 -18 -41 -13 -20 -24 -41 -24
-47 -1 -28 -16 -37 -43 -25 -15 7 -27 16 -27 21 0 5 19 29 41 53 39 42 58 53
71 39z m-333 -61 c2 -1 -13 -19 -35 -38 -26 -23 -46 -33 -60 -30 -30 7 -62
-29 -44 -50 19 -23 33 -19 86 30 54 50 89 74 83 56 -2 -5 -76 -86 -165 -178
-258 -270 -428 -454 -562 -608 -38 -43 -41 -45 -24 -15 58 105 196 330 265
434 97 145 313 433 334 444 12 7 96 -23 122 -45z m-6149 -27 c0 -13 9 -35 20
-49 11 -14 20 -34 20 -44 0 -10 6 -25 13 -32 10 -11 8 -12 -8 -3 -26 14 -125
109 -125 120 0 8 45 29 68 31 6 1 12 -10 12 -23z m7240 -46 c52 -5 119 -10
148 -10 28 0 52 -2 52 -4 0 -2 -20 -37 -45 -77 -24 -39 -46 -77 -48 -83 -3 -7
-9 -7 -20 2 -50 42 -209 -63 -246 -161 l-11 -28 -35 27 c-25 19 -34 32 -29 43
4 9 9 42 12 74 3 46 1 62 -13 77 -18 19 -17 22 31 91 45 66 50 70 79 65 16 -3
73 -10 125 -16z m-3635 -128 c-7 -8 -76 29 -81 43 -3 6 3 28 11 49 l16 38 30
-62 c16 -35 27 -65 24 -68z m3044 102 c20 -25 30 -100 13 -92 -35 14 -162 84
-162 89 0 12 47 28 87 28 33 1 46 -4 62 -25z m-6896 -16 c15 -12 15 -21 2
-108 -37 -243 6 -405 144 -541 79 -77 97 -88 224 -133 75 -28 95 -39 119 -72
23 -31 28 -46 23 -71 -6 -35 10 -105 32 -138 19 -28 17 -32 -18 -44 -43 -15
-47 -14 -54 10 -18 57 -107 123 -185 137 -37 7 -43 15 -190 236 -83 126 -148
234 -145 240 3 6 12 22 20 36 16 28 11 61 -16 107 -26 42 -47 48 -74 23 -19
-18 -26 -19 -41 -10 -15 10 -161 205 -172 230 -1 3 23 14 55 24 l57 18 27 -32
c21 -24 32 -30 48 -25 22 7 35 39 29 75 -2 18 4 26 32 36 46 16 63 17 83 2z
m6761 -73 c75 -38 136 -75 136 -81 0 -6 -32 -43 -72 -82 -65 -65 -75 -72 -111
-72 -47 0 -77 22 -77 57 0 13 -7 26 -16 30 -44 17 -120 -83 -109 -143 5 -28 2
-33 -25 -44 -42 -17 -115 -101 -136 -156 l-17 -45 -86 7 c-142 11 -184 18
-188 31 -5 13 38 61 307 341 100 105 189 189 208 197 17 8 32 19 32 25 0 15
-3 16 154 -65z m-1694 -116 c0 -64 -3 -79 -12 -72 -7 6 -24 13 -38 16 -14 3
-34 13 -45 21 -19 14 -19 16 30 65 27 28 53 51 57 51 4 0 8 -37 8 -81z m-5724
46 c-22 -16 -46 -20 -46 -7 0 15 13 22 39 22 25 -1 25 -1 7 -15z m4384 -42
c14 -9 30 -24 37 -33 7 -8 13 -11 13 -5 0 5 7 0 15 -12 8 -11 35 -34 60 -49
25 -16 45 -32 45 -35 0 -6 -140 -50 -170 -54 -8 -1 -22 -5 -30 -8 -78 -33
-170 -49 -170 -31 0 1 22 32 48 67 27 35 64 89 83 120 19 31 36 57 39 57 3 0
17 -8 30 -17z m-4277 -43 c5 -19 17 -44 28 -56 10 -11 19 -26 19 -33 0 -6 12
-23 26 -36 l25 -23 -58 -7 c-104 -12 -107 -11 -111 9 -2 11 -14 36 -27 55 -12
20 -25 48 -28 62 -6 24 -2 28 41 47 61 27 74 24 85 -18z m2267 -217 c40 -76
79 -147 86 -159 11 -18 9 -27 -12 -64 -14 -24 -40 -65 -59 -90 -19 -26 -35
-54 -35 -62 0 -14 -73 -34 -195 -53 -16 -2 -48 -8 -70 -13 l-40 -8 0 72 c0 64
-3 77 -30 116 -28 39 -83 76 -138 92 -16 5 -15 11 12 58 26 46 36 54 68 60 21
3 65 11 97 17 74 13 152 63 198 125 18 25 36 45 39 46 4 0 39 -62 79 -137z
m5748 102 c2 -17 -1 -40 -5 -52 -8 -21 -9 -21 -46 13 -39 36 -40 49 -3 64 35
15 51 7 54 -25z m-85 -99 l38 -30 -53 -19 c-40 -15 -72 -39 -131 -98 -68 -69
-97 -91 -97 -74 0 3 16 26 36 52 78 101 86 164 28 193 l-31 16 25 37 24 36 62
-41 c33 -23 78 -55 99 -72z m-6713 77 c0 -10 -7 -60 -15 -112 -17 -104 -10
-170 26 -245 25 -52 24 -66 -5 -66 -15 0 -33 12 -48 33 -24 30 -24 35 -15 94
9 52 7 78 -10 160 -12 54 -25 107 -29 117 -7 17 -4 18 24 13 22 -4 36 -2 44 8
18 19 28 19 28 -2z m4281 -8 c41 -7 86 -11 99 -8 l23 6 -7 -154 c-15 -317 -63
-591 -179 -1013 -70 -258 -75 -270 -100 -277 -23 -6 -29 -3 -41 24 -8 18 -33
133 -56 257 -23 124 -50 266 -61 315 -45 203 -145 442 -252 602 l-54 82 82 -6
c111 -8 229 11 291 47 27 15 72 52 99 83 28 30 57 55 65 56 8 1 49 -6 91 -14z
m-5648 -9 c22 -17 22 -26 -2 -26 -10 0 -21 9 -24 20 -6 23 1 25 26 6z m4840
-153 c35 -43 85 -109 109 -148 54 -83 143 -254 136 -261 -3 -2 -54 7 -114 22
-323 76 -756 166 -803 166 -88 0 -109 -40 -57 -106 13 -16 71 -35 161 -52 84
-15 261 -57 267 -63 3 -3 8 -17 10 -30 3 -23 -9 -29 -191 -102 l-194 -77 -44
15 c-31 11 -66 14 -111 10 -78 -6 -210 -47 -253 -80 -44 -31 -141 -148 -205
-244 -29 -45 -57 -84 -62 -87 -4 -2 -48 -12 -97 -21 -50 -8 -143 -26 -207 -38
l-117 -24 -61 175 -60 175 25 33 c41 54 246 183 463 292 111 56 211 102 222
102 25 0 100 30 100 40 0 4 9 11 20 16 10 5 41 28 67 51 26 22 87 73 136 112
48 39 97 81 108 92 11 11 27 18 36 15 8 -3 23 -6 34 -6 11 0 32 -12 47 -27 15
-15 32 -26 37 -24 61 22 495 149 512 150 15 1 40 -22 86 -76z m-4713 57 c0
-16 71 -90 99 -104 55 -28 86 -29 118 -2 l30 25 21 -29 c12 -16 42 -41 67 -56
25 -14 46 -31 47 -37 1 -7 2 -66 3 -132 1 -100 5 -130 24 -180 38 -99 38 -105
3 -105 -41 0 -84 -38 -84 -73 0 -15 -3 -27 -7 -27 -3 0 -21 27 -39 59 -37 63
-128 164 -142 156 -7 -4 -50 53 -50 67 0 14 38 1 60 -19 14 -14 44 -36 68 -50
79 -47 80 7 2 112 -21 28 -40 66 -44 85 -10 59 -40 96 -91 116 -37 14 -48 15
-55 5 -10 -17 -44 4 -59 36 -6 13 -22 28 -36 35 -14 6 -25 15 -25 20 0 4 -18
26 -40 47 l-41 40 43 5 c24 3 54 7 68 10 48 7 60 6 60 -4z m1604 -105 c-4 -8
-8 -15 -10 -15 -2 0 -4 7 -4 15 0 8 4 15 10 15 5 0 7 -7 4 -15z m5482 -1 c-3
-9 -6 -20 -6 -25 0 -5 -9 -9 -20 -9 -24 0 -25 8 -3 32 20 22 37 24 29 2z m549
-24 c13 -21 -6 -50 -33 -50 -33 0 -62 37 -40 51 18 12 65 11 73 -1z m-830 -71
c99 -6 181 -13 183 -14 1 -1 -14 -32 -33 -69 -19 -37 -35 -74 -35 -82 0 -21
-15 -17 -48 11 -46 39 -100 58 -141 50 -88 -16 -164 -93 -176 -179 l-7 -43
-109 46 c-59 25 -108 50 -109 55 0 4 23 36 52 70 138 162 159 179 218 171 14
-2 106 -9 205 -16z m895 -66 c2 -2 3 -20 1 -39 -2 -26 1 -34 13 -34 9 0 16 -3
16 -7 -1 -17 -59 -74 -125 -123 -58 -42 -77 -64 -108 -122 -38 -71 -41 -103
-6 -72 23 21 23 11 0 -41 -17 -38 -18 -39 -29 -19 -6 12 -25 27 -41 34 -84 34
-183 -43 -225 -174 -4 -10 -8 -17 -11 -14 -2 2 2 26 10 53 20 63 19 125 -1
175 -12 29 -14 44 -6 52 11 11 16 9 60 -16 34 -20 118 2 188 48 88 59 86 81
-5 81 -65 0 -91 15 -91 51 0 16 8 28 25 36 14 6 28 23 32 37 3 14 15 32 25 39
10 7 25 26 33 42 l15 30 113 -7 c61 -3 114 -8 117 -10z m-5838 -103 c45 -48
47 -60 11 -60 -16 0 -70 -9 -121 -19 -51 -10 -95 -14 -98 -10 -3 5 0 26 6 48
15 56 50 81 113 81 46 0 54 -4 89 -40z m-1862 -114 c-1 -16 -5 -12 -15 13 -19
42 -19 52 0 27 8 -11 15 -29 15 -40z m2176 -36 c-25 -44 -46 -86 -46 -95 0
-34 -115 -69 -127 -39 -12 33 -46 33 -82 2 -30 -27 -40 -30 -82 -26 -60 6 -99
31 -99 62 0 13 -7 29 -15 36 -8 7 -15 23 -15 35 0 25 -8 23 175 51 61 9 160
27 220 39 61 12 112 20 114 18 2 -1 -17 -39 -43 -83z m-772 15 c19 -14 14 -35
-8 -35 -12 0 -46 40 -46 54 0 7 34 -5 54 -19z m5286 -161 c41 -20 76 -37 78
-39 7 -7 -76 -149 -95 -162 -12 -8 -38 -13 -60 -11 -34 3 -39 7 -50 38 -6 20
-17 34 -25 32 -44 -11 -87 -104 -73 -159 8 -35 43 -73 67 -73 22 0 22 -3 -1
-65 -15 -38 -24 -49 -38 -46 -10 2 -47 4 -83 5 -56 0 -74 -4 -128 -34 -96 -51
-159 -135 -170 -225 l-4 -41 -177 1 c-173 0 -176 1 -179 22 -6 40 143 432 190
501 35 53 241 322 300 394 l38 46 168 -74 c92 -42 201 -91 242 -110z m84 125
c24 -28 38 -99 20 -99 -12 0 -174 79 -174 84 0 14 68 46 97 46 23 0 38 -8 57
-31z m-2038 -30 c6 -5 13 -7 16 -4 2 3 46 -4 96 -15 51 -11 110 -21 132 -22
35 -1 41 -5 46 -27 4 -14 12 -48 20 -76 29 -110 128 -644 121 -652 -3 -3 -29
0 -59 6 -126 26 -265 52 -433 81 -174 30 -194 35 -261 68 -22 11 -42 13 -70 7
-21 -5 -148 -9 -282 -9 l-243 -1 38 30 c21 16 51 42 66 57 16 16 33 28 38 28
5 0 9 7 9 17 0 9 26 48 58 87 32 39 73 97 92 128 19 32 43 61 55 64 71 21 375
150 375 160 0 6 19 31 42 54 40 40 44 41 88 35 25 -4 50 -11 56 -16z m2904
-29 c-15 -28 -23 -20 -14 15 4 17 10 23 16 17 6 -6 6 -18 -2 -32z m-6190 -18
c0 -15 -2 -15 -10 -2 -13 20 -13 33 0 25 6 -3 10 -14 10 -23z m-161 -78 c17
-25 46 -46 96 -69 91 -44 107 -61 70 -75 -14 -5 -41 -10 -59 -10 -19 0 -39 -7
-46 -15 -20 -24 73 -112 126 -121 l39 -6 37 -147 c21 -80 40 -155 43 -166 6
-19 -2 -22 -106 -38 -62 -10 -116 -19 -121 -20 -8 -2 -77 112 -225 368 -19 33
-54 92 -78 130 -25 39 -45 73 -45 76 0 4 9 9 19 12 12 3 23 18 28 38 8 28 16
35 61 50 41 14 59 16 80 8 22 -8 29 -7 37 5 14 22 17 21 44 -20z m-1095 -81
c18 -51 20 -73 9 -73 -5 0 -15 29 -23 64 -18 74 -10 79 14 9z m6844 15 c20
-20 13 -28 -13 -16 -14 6 -25 15 -25 20 0 12 24 10 38 -4z m-6494 -41 c16 -12
14 -14 -23 -27 -48 -16 -62 -8 -36 20 21 23 34 25 59 7z m356 -107 c39 -63 66
-116 61 -118 -24 -8 -79 31 -94 66 -9 20 -20 44 -26 52 -5 8 -14 26 -20 40 -6
14 -17 33 -23 43 -11 14 -10 19 2 27 8 5 18 9 22 7 5 -1 39 -54 78 -117z
m6111 64 c49 -24 50 -26 43 -57 -23 -96 1 -121 60 -62 l36 35 72 -52 c40 -28
83 -60 95 -71 21 -19 21 -47 -1 -47 -6 0 -34 -11 -61 -24 -76 -35 -150 -113
-190 -199 -42 -91 -59 -106 -125 -114 l-53 -6 25 34 c61 80 75 163 33 204 -13
14 -31 25 -40 25 -12 0 -14 6 -9 26 5 20 2 26 -15 31 -16 4 -20 10 -15 22 22
54 44 138 44 173 0 35 31 108 46 108 3 0 27 -11 55 -26z m-6390 -67 c3 -20 13
-45 22 -55 10 -10 17 -26 17 -35 0 -10 9 -25 20 -34 11 -10 20 -28 20 -41 0
-35 -13 -20 -35 40 -12 33 -38 71 -67 101 -46 46 -47 48 -25 57 33 13 41 7 48
-33z m1828 17 c12 -15 21 -30 21 -34 0 -5 -16 -32 -36 -61 -20 -30 -59 -100
-86 -156 -27 -57 -50 -103 -51 -104 -14 -5 -333 -25 -335 -20 -1 3 -23 56 -48
116 -26 61 -46 118 -45 128 0 9 2 39 3 67 2 60 -10 57 233 65 175 6 256 12
264 21 15 14 62 1 80 -22z m4900 -8 c9 -11 14 -45 12 -79 -1 -14 -11 -10 -51
22 -28 22 -51 44 -52 48 -1 13 42 31 63 26 10 -3 23 -10 28 -17z m-4593 -162
c24 -70 41 -130 39 -134 -8 -13 -85 -21 -103 -11 -12 6 -35 3 -72 -9 -58 -20
-88 -24 -114 -14 -13 5 -12 13 11 57 54 109 174 260 191 242 2 -2 24 -61 48
-131z m-996 31 c32 -12 39 -23 82 -122 26 -59 48 -113 48 -119 0 -13 -110 -28
-121 -17 -7 8 -79 258 -79 276 0 5 8 6 18 2 9 -4 33 -13 52 -20z m-1200 -30
c42 -22 37 -31 -15 -27 -42 4 -56 17 -38 35 10 10 21 9 53 -8z m8 -116 c11
-27 68 -93 95 -109 45 -28 83 -25 114 7 18 17 28 22 31 14 2 -7 18 -29 35 -48
18 -20 41 -65 53 -103 l21 -68 -32 -15 -32 -15 -12 38 c-6 21 -25 50 -42 64
-34 29 -75 36 -65 11 7 -19 2 -19 -32 -1 -26 13 -96 98 -122 145 -6 11 -22 32
-35 47 -32 35 -33 58 -2 48 12 -3 23 -10 25 -15z m561 -116 c33 -57 56 -105
52 -107 -17 -11 -193 -56 -200 -51 -15 9 -19 55 -5 55 40 0 57 97 30 172 -7
21 -12 39 -10 41 2 2 20 1 39 -2 32 -5 40 -15 94 -108z m-673 22 c13 -27 37
-68 54 -90 38 -52 37 -59 -4 -35 -52 31 -70 57 -82 119 -6 31 -14 65 -18 76
l-8 20 17 -20 c9 -11 28 -42 41 -70z m5951 -77 c9 -7 13 -26 11 -52 l-3 -41
-107 -3 c-64 -2 -108 1 -108 7 0 20 56 75 95 93 41 19 86 18 112 -4z m387 -34
c22 -21 20 -61 -1 -68 -17 -5 -99 -9 -132 -7 -30 2 74 91 106 91 6 0 19 -7 27
-16z m356 -4 c0 -5 -8 -10 -17 -10 -15 0 -16 2 -3 10 19 12 20 12 20 0z
m-4032 -38 c3 -10 -17 -12 -100 -7 -245 14 -278 27 -58 23 115 -2 154 -6 158
-16z m462 -19 c140 -42 134 -50 -29 -33 -91 10 -161 36 -161 62 0 15 91 1 190
-29z m490 -22 c222 -30 308 -35 325 -21 21 18 131 4 173 -22 17 -11 32 -22 32
-25 0 -3 -42 -3 -92 1 -51 3 -186 11 -300 16 -185 10 -213 13 -263 35 -31 14
-62 25 -70 25 -8 0 -15 4 -15 9 0 6 15 8 33 5 17 -2 97 -13 177 -23z m-1836
-28 c-4 -21 -8 -40 -11 -43 -2 -2 -23 -3 -46 -2 -41 3 -177 60 -177 75 0 4 54
7 120 7 l121 0 -7 -37z m474 18 c26 -10 103 -37 171 -60 69 -23 127 -43 129
-46 11 -11 -6 -13 -58 -5 -30 5 -109 11 -175 14 -267 12 -376 20 -381 27 -3 5
0 27 6 49 l11 40 125 0 c99 0 135 -4 172 -19z m-2122 -29 c-9 -8 -26 10 -26
26 1 15 2 15 15 -2 8 -11 13 -21 11 -24z m6469 -22 c-16 -30 -65 -60 -101 -60
-23 0 63 88 90 92 29 5 30 4 11 -32z m-5381 15 c4 -13 -8 -15 -76 -15 -45 0
-79 2 -76 5 4 4 84 18 134 24 7 0 14 -6 18 -14z m206 -17 c0 -13 -23 -5 -28
10 -2 7 2 10 12 6 9 -3 16 -11 16 -16z m3025 7 c33 -3 78 -8 100 -10 22 -3 90
-9 150 -15 171 -16 178 -18 152 -54 -12 -17 -19 -17 -157 2 -80 12 -169 23
-198 27 -54 6 -142 42 -142 58 0 4 8 6 18 3 9 -2 44 -7 77 -11z m2002 -30 c-5
-19 -19 -37 -29 -41 -19 -6 -58 -72 -58 -99 0 -19 4 -20 -71 14 -35 16 -90 37
-121 47 -32 10 -58 22 -58 27 0 5 12 21 28 36 26 27 34 28 146 34 66 4 121 9
124 12 3 3 15 5 28 5 21 0 21 -2 11 -35z m-557 10 c0 -18 1 -18 -75 -1 l-60
14 68 1 c53 1 67 -2 67 -14z m-3074 -8 c41 -18 104 -60 104 -71 0 -4 -8 -5
-17 -1 -10 4 -63 25 -118 46 l-100 38 51 1 c29 0 65 -6 80 -13z m-1554 -86
c16 -35 27 -66 25 -68 -2 -2 -30 -1 -61 3 -62 8 -177 70 -204 113 l-16 23 114
-3 113 -4 29 -64z m2618 59 c422 -31 386 -25 485 -74 50 -25 135 -65 189 -90
55 -26 97 -48 95 -50 -2 -2 -159 23 -349 55 -190 32 -366 59 -391 59 -37 0
-65 10 -138 51 -50 28 -91 53 -91 55 0 6 53 5 200 -6z m-3032 -62 c24 -12 31
-34 8 -25 -8 3 -58 9 -113 13 -54 3 -102 9 -106 11 -5 3 18 17 50 33 l58 27
40 -24 c22 -13 50 -29 63 -35z m732 42 c19 -7 65 -24 103 -38 l67 -25 0 -50 0
-49 -32 6 c-18 4 -77 10 -132 13 l-99 6 -33 74 c-19 41 -34 76 -34 79 0 10
125 -3 160 -16z m1913 0 c14 -11 30 -20 35 -20 6 0 14 -5 18 -11 4 -8 -25 -9
-102 -4 -60 4 -130 8 -155 9 -40 2 -99 27 -99 41 0 3 62 5 139 5 123 0 141 -2
164 -20z m-1132 -30 c103 -11 226 -20 275 -19 82 1 93 -1 149 -31 116 -63 150
-82 158 -89 12 -12 -190 -21 -451 -21 l-233 0 -97 41 c-160 68 -252 124 -239
146 7 11 197 -1 438 -27z m-2181 -19 c-1 -13 -3 -13 -15 3 -19 26 -19 42 0 26
8 -7 15 -20 15 -29z m4925 13 c36 -15 64 -29 61 -31 -5 -5 -146 16 -146 22 0
8 12 35 16 35 2 0 33 -12 69 -26z m-4948 -46 c9 2 7 -6 -5 -27 -9 -16 -17 -29
-18 -28 -1 1 -14 29 -28 62 l-26 60 32 -35 c18 -19 38 -34 45 -32z m4586 15
c59 -6 64 -11 47 -43 -9 -17 -14 -16 -85 15 -88 38 -105 51 -55 41 19 -4 61
-9 93 -13z m757 -8 c59 -12 67 -31 11 -26 -34 3 -121 36 -121 46 0 3 12 2 28
-2 15 -3 52 -12 82 -18z m-4741 -44 l154 -16 44 -79 c24 -44 42 -80 40 -82 -2
-2 -57 8 -122 22 -65 13 -143 25 -173 25 -93 2 -265 101 -248 144 6 18 2 18
305 -14z m4341 0 c36 -6 103 -13 150 -16 68 -5 106 -15 187 -48 57 -23 103
-44 103 -47 0 -3 -120 -4 -267 -2 -220 2 -275 6 -305 19 l-38 16 27 48 c23 40
31 47 53 44 14 -2 54 -9 90 -14z m1360 -9 c0 -5 -6 -16 -12 -25 -11 -14 -15
-14 -32 -2 -19 14 -18 15 5 24 31 12 39 13 39 3z m-4500 -32 c8 -5 12 -12 8
-15 -9 -9 -48 4 -48 16 0 12 21 11 40 -1z m2450 -75 c118 -20 231 -38 251 -41
l36 -5 -29 -54 -28 -53 -83 4 c-45 3 -98 6 -117 8 -42 4 -300 142 -300 161 0
18 8 23 33 18 12 -2 119 -19 237 -38z m-455 -35 c55 -29 102 -55 105 -58 6 -5
-70 4 -151 20 -49 9 -61 16 -88 51 -17 22 -31 44 -31 48 0 15 69 -11 165 -61z
m-2240 45 c27 -5 30 -9 32 -48 4 -65 -5 -73 -64 -57 -76 21 -115 43 -134 75
-10 17 -18 34 -18 38 -1 8 113 3 184 -8z m-367 -81 c28 -10 52 -23 52 -28 0
-5 -35 -6 -82 -3 -46 4 -91 7 -100 7 -11 0 -27 19 -43 50 -14 27 -25 51 -25
54 0 3 33 -10 73 -29 39 -18 96 -41 125 -51z m873 20 c43 -21 78 -41 78 -44 1
-3 -85 -5 -191 -5 l-192 0 -3 35 c-4 63 -4 63 118 58 105 -4 116 -7 190 -44z
m833 12 c12 -16 36 -49 54 -73 17 -24 32 -46 32 -49 0 -4 -21 -3 -47 0 -27 4
-75 11 -108 16 -33 5 -139 14 -235 21 l-174 12 -98 49 c-54 26 -98 51 -98 54
0 3 147 4 326 2 l327 -3 21 -29z m3095 11 c8 -11 5 -13 -19 -9 -16 2 -27 8
-24 13 8 13 30 11 43 -4z m-576 -37 l87 0 0 -40 c0 -27 6 -45 19 -57 11 -9 18
-19 16 -22 -2 -4 -84 0 -182 8 l-178 13 -97 49 c-54 27 -98 51 -98 53 0 2 78
2 173 0 94 -2 211 -4 260 -4z m795 -26 c-10 -10 -28 6 -28 24 0 15 1 15 17 -1
9 -9 14 -19 11 -23z m-1416 -21 l70 -38 -92 -3 c-51 -1 -94 -1 -97 1 -5 5 37
77 44 77 3 0 37 -17 75 -37z m1183 17 c13 0 16 -3 9 -10 -12 -12 -74 -2 -74
12 0 6 10 8 23 4 12 -3 31 -6 42 -6z m-213 -46 c43 -15 78 -30 78 -34 0 -13
-43 -20 -133 -20 l-87 0 20 40 c11 22 26 40 33 40 6 0 47 -12 89 -26z m-4531
-4 c22 0 39 -4 39 -9 0 -11 -129 -4 -175 10 -22 7 -13 8 34 4 35 -3 81 -5 102
-5z m2644 -20 c66 -11 136 -20 156 -20 25 0 71 -19 150 -62 129 -69 124 -66
117 -73 -5 -5 -85 2 -351 31 l-167 18 -12 41 c-7 22 -18 50 -26 63 -18 28 -21
28 133 2z m-1548 -6 c21 -9 56 -25 78 -34 22 -10 59 -23 83 -30 23 -6 42 -13
42 -16 0 -4 -6 -4 -14 -1 -17 7 -317 33 -536 46 -148 9 -230 25 -230 43 0 4
121 8 270 8 227 0 275 -3 307 -16z m478 -29 c72 -7 157 -17 190 -21 34 -4 69
-14 80 -24 11 -10 43 -29 70 -44 l50 -25 -60 5 c-161 14 -240 26 -288 43 -28
10 -92 31 -142 47 -101 32 -131 49 -70 40 22 -3 99 -13 170 -21z m1643 -17
c-7 -19 -31 -21 -53 -4 -19 15 -18 15 18 16 27 0 37 -4 35 -12z m595 -22 c30
-14 81 -32 113 -42 33 -9 63 -19 67 -23 16 -15 -216 -31 -318 -21 -103 9 -298
32 -303 35 -2 2 5 19 14 39 l18 36 177 0 c165 0 180 -2 232 -24z m426 -2 c45
-9 39 -26 -6 -18 -49 8 -77 23 -47 24 12 0 36 -3 53 -6z m-1890 -75 c17 -6 31
-14 31 -18 0 -8 -118 -4 -170 6 -34 7 -33 7 20 13 30 4 62 7 71 8 9 1 30 -3
48 -9z m-2243 -9 c8 0 14 -3 14 -8 0 -4 -20 -6 -45 -4 -25 2 -45 9 -45 14 0 6
13 8 31 4 17 -3 38 -6 45 -6z m244 -20 c12 -8 11 -10 -7 -10 -13 0 -23 5 -23
10 0 13 11 13 30 0z m2465 -18 c-66 -4 -145 5 -145 16 0 4 46 3 103 -3 95 -9
98 -10 42 -13z m-2076 -8 c9 -8 -175 -2 -194 7 -13 5 19 6 85 3 58 -4 107 -8
109 -10z m210 -10 c2 -2 -40 -4 -95 -4 -65 0 -94 3 -84 10 13 8 169 3 179 -6z"/>
</g>
</svg>
